:SAMPLES-PER-SECOND 30
:FULLY-SPECIFIED
:DEGREES
255
root  -22.8419 36.5177 2.47096 -2.84628 -79.7262 2.25359
RightUpLeg  -24.2959 -21.5741 -7.15434
RightLeg  65.3059 -3.56479 -8.93891
RightFoot  -5.12533 -0.100497 -0.0973304
RightToes  1.45519e-009 0 -3.6325e-017
Spine  29.9445 0.104356 0.197146
Spine1  3.12236 -0.622539 3.17776
HEad  -39.0355 5.63451 -7.91679
LeftShoulder1  0.484931 1.86524 -23.2816
LeftArm  5.93414 -15.5343 -65.1614
LeftForeArm  37.3575 -76.5256 -52.8964
LeftHand  -0.0259606 5.30096 8.01317
RightShoulder  -0.13294 -3.91911 23.7322
RightArm  16.7255 -2.13258 52.5525
RightForeArm  144.123 74.9796 139.596
RightHand  -0.514715 6.94453 -5.18335
LeftUpLeg  -33.5395 9.19971 0.841907
LeftLeg  40.8425 5.28784 5.26917
LeftFoot  -5.35794 -0.0433544 1.44462
LeftToes  -2.53752e-010 -2.07034e-011 -2.70101e-011
256
root  -23.2388 36.4072 2.44374 -6.25102 -77.9485 6.09999
RightUpLeg  -27.3489 -17.7917 -8.81458
RightLeg  67.0895 -0.755233 -2.76169
RightFoot  -7.57613 -0.0738261 0.798715
RightToes  1.45519e-009 0 -3.6325e-017
Spine  30.3386 0.10265 -1.76063
Spine1  2.74397 -1.01513 2.78093
HEad  -40.1348 9.46203 -11.5316
LeftShoulder1  0.430133 2.06382 -23.5887
LeftArm  3.75754 -14.9071 -64.2822
LeftForeArm  41.5341 -77.1577 -56.759
LeftHand  0.115874 7.84327 6.97256
RightShoulder  -0.0783094 -3.74187 23.3173
RightArm  17.9951 -3.20521 53.0649
RightForeArm  145.143 74.8045 140.265
RightHand  -0.472547 7.51732 -4.5847
LeftUpLeg  -33.9289 8.10122 -0.067439
LeftLeg  41.7016 4.68771 4.85783
LeftFoot  -6.12509 -0.0241432 1.34105
LeftToes  -2.53752e-010 -2.07034e-011 -2.70101e-011
257
root  -23.5565 36.3821 2.35914 -6.36142 -76.2877 6.6698
RightUpLeg  -29.8012 -13.5764 -9.88783
RightLeg  64.9375 -0.213339 -1.08654
RightFoot  -10.0611 -0.0973166 2.67392
RightToes  1.45519e-009 0 -3.6325e-017
Spine  31.4815 -0.186434 -1.89793
Spine1  2.05263 -0.889575 0.667174
HEad  -42.5073 12.197 -14.7652
LeftShoulder1  0.400193 2.19413 -24.2716
LeftArm  1.98109 -15.316 -62.9601
LeftForeArm  42.0962 -77.2687 -57.7073
LeftHand  0.137906 8.03079 7.44538
RightShoulder  -0.0715806 -3.71787 23.3529
RightArm  18.8111 -4.07241 53.2929
RightForeArm  147.419 74.5852 141.27
RightHand  -0.178187 7.49946 -1.97552
LeftUpLeg  -34.2304 7.51132 -0.40598
LeftLeg  41.9088 3.89654 4.1427
LeftFoot  -6.54136 -0.0151947 1.30365
LeftToes  -2.53752e-010 -2.07034e-011 -2.70101e-011
258
root  -23.8429 36.4526 2.17721 -5.35272 -74.4624 5.67067
RightUpLeg  -30.7747 -9.29292 -11.0949
RightLeg  59.2223 -0.41506 -1.2459
RightFoot  -12.6473 -0.0463201 3.69251
RightToes  1.45519e-009 0 -3.6325e-017
Spine  33.5691 -0.312995 -1.69947
Spine1  1.20137 -0.715656 -0.737247
HEad  -45.1936 15.9012 -18.4555
LeftShoulder1  0.509126 1.83749 -24.2966
LeftArm  -0.900984 -15.4018 -62.7841
LeftForeArm  42.3186 -77.2559 -57.4768
LeftHand  0.180032 8.47023 7.998
RightShoulder  -0.00609284 -3.49917 22.6808
RightArm  19.5835 -4.73632 53.6487
RightForeArm  146.317 74.5895 141.052
RightHand  -0.185489 7.47357 -2.03546
LeftUpLeg  -33.8592 7.16814 -0.199738
LeftLeg  41.4668 2.76827 3.01524
LeftFoot  -6.60216 -0.0117232 1.22729
LeftToes  -2.53752e-010 -2.07034e-011 -2.70101e-011
259
root  -24.1255 36.4254 1.86832 -2.35637 -72.6876 3.535
RightUpLeg  -32.3443 -4.05469 -12.1811
RightLeg  52.3125 0.248118 -0.0733493
RightFoot  -14.0462 0.000353242 4.03007
RightToes  1.45519e-009 0 -3.6325e-017
Spine  34.4854 -0.386628 -0.974452
Spine1  0.81505 -0.167199 -2.75341
HEad  -47.4111 18.5142 -20.7844
LeftShoulder1  0.608834 1.5112 -24.2806
LeftArm  -3.54338 -16.5803 -62.9586
LeftForeArm  37.9581 -76.4739 -52.169
LeftHand  0.0574381 6.96648 6.65215
RightShoulder  0.0282313 -3.37905 22.2651
RightArm  20.4505 -4.96561 54.1747
RightForeArm  144.986 74.8136 140.213
RightHand  -0.162846 7.36058 -1.84233
LeftUpLeg  -34.9689 7.20335 0.470399
LeftLeg  41.6616 1.38008 1.71576
LeftFoot  -6.72098 -0.0120174 1.21914
LeftToes  -2.53752e-010 -2.07034e-011 -2.70101e-011
260
root  -24.4384 36.2996 1.39697 0.616135 -69.8575 1.35239
RightUpLeg  -33.3717 0.746169 -13.5007
RightLeg  46.502 2.22883 2.19505
RightFoot  -14.6364 0.0557746 5.40768
RightToes  1.45519e-009 0 -3.6325e-017
Spine  35.7423 -0.558656 -0.681775
Spine1  -0.0828343 0.000177858 -3.98322
HEad  -49.3578 21.367 -22.9248
LeftShoulder1  0.725957 1.14882 -24.589
LeftArm  -6.63055 -17.5774 -63.1451
LeftForeArm  34.1198 -75.6581 -47.8756
LeftHand  -0.033542 5.25704 7.31074
RightShoulder  0.0960255 -3.13341 21.4649
RightArm  21.2458 -4.59698 55.4848
RightForeArm  143.987 75.2671 138.751
RightHand  -0.16652 6.99887 -1.91205
LeftUpLeg  -36.5899 6.6894 1.42363
LeftLeg  42.426 -0.218759 0.183864
LeftFoot  -6.77005 -0.00675949 1.19676
LeftToes  -2.53752e-010 -2.07034e-011 -2.70101e-011
261
root  -24.822 36.0153 0.780187 2.17001 -66.0557 -0.0578156
RightUpLeg  -33.6359 3.0767 -14.2562
RightLeg  44.3319 3.96151 3.85636
RightFoot  -14.9472 0.136174 7.4929
RightToes  1.45519e-009 0 -3.6325e-017
Spine  37.1257 -0.690632 -1.10725
Spine1  -0.373094 -0.222866 -4.25449
HEad  -51.1942 23.6396 -24.1936
LeftShoulder1  0.811676 0.843485 -24.2635
LeftArm  -10.3447 -18.7935 -63.6837
LeftForeArm  31.1771 -74.7869 -44.1042
LeftHand  0.0680601 7.45625 5.26565
RightShoulder  0.15686 -2.89977 20.5974
RightArm  21.6332 -2.85391 58.0703
RightForeArm  140.882 75.9172 136.154
RightHand  -0.171719 7.05077 -1.96093
LeftUpLeg  -38.2021 6.01356 2.47141
LeftLeg  44.1176 -2.35105 -2.03195
LeftFoot  -7.14805 -0.00438102 1.29238
LeftToes  -2.53752e-010 -2.07034e-011 -2.70101e-011
262
root  -25.2647 35.6764 0.0527665 3.54298 -61.5101 -1.21068
RightUpLeg  -33.8203 1.44232 -13.0768
RightLeg  46.1721 3.13874 3.1672
RightFoot  -15.7724 0.248293 9.28271
RightToes  1.45519e-009 0 -3.6325e-017
Spine  37.9123 -0.336893 -1.78256
Spine1  -0.0202419 -0.442729 -2.77674
HEad  -51.4962 25.5025 -23.9802
LeftShoulder1  0.881365 0.57949 -23.8649
LeftArm  -13.1518 -21.7023 -64.6247
LeftForeArm  24.5126 -72.9521 -38.3161
LeftHand  -0.0208146 6.18807 5.94405
RightShoulder  0.192562 -2.75154 19.9922
RightArm  21.2018 -0.503826 60.8667
RightForeArm  139.403 76.0861 135.277
RightHand  -0.0767095 7.44698 -1.05731
LeftUpLeg  -40.2297 4.96455 3.72778
LeftLeg  45.9268 -4.58953 -4.63866
LeftFoot  -7.39605 0.00898816 1.03338
LeftToes  -2.53752e-010 -2.07034e-011 -2.70101e-011
263
root  -25.721 35.3328 -0.675963 5.19972 -57.0996 -2.37137
RightUpLeg  -34.9634 -2.09306 -10.7762
RightLeg  49.8249 1.88469 2.03989
RightFoot  -17.4429 0.269892 7.26631
RightToes  1.45519e-009 0 -3.6325e-017
Spine  38.6542 0.216679 -1.61787
Spine1  -0.45593 -0.366892 -1.04205
HEad  -50.9777 25.0733 -22.4524
LeftShoulder1  0.897035 0.521043 -23.8052
LeftArm  -14.1047 -25.0467 -65.736
LeftForeArm  17.7507 -71.0938 -34.1501
LeftHand  -0.0932173 4.68617 10.5426
RightShoulder  0.218359 -2.63163 19.1788
RightArm  20.5481 1.76672 64.033
RightForeArm  138.585 76.1323 134.943
RightHand  -0.199788 7.27976 -2.18242
LeftUpLeg  -42.7389 4.0965 5.1442
LeftLeg  47.668 -6.60143 -7.29003
LeftFoot  -7.54998 0.0254549 0.607519
LeftToes  -2.53752e-010 -2.07034e-011 -2.70101e-011
264
root  -26.223 34.9396 -1.38567 6.96315 -52.6435 -3.5179
RightUpLeg  -36.562 -5.5849 -8.38673
RightLeg  53.4659 1.07572 1.1654
RightFoot  -18.7726 0.256534 5.88875
RightToes  1.45519e-009 0 -3.6325e-017
Spine  39.3443 0.563329 -0.809821
Spine1  -1.2068 0.0226176 -0.32147
HEad  -51.145 24.1915 -21.1784
LeftShoulder1  1.00586 0.0877837 -23.1534
LeftArm  -15.0232 -27.6318 -67.0573
LeftForeArm  17.0457 -70.1824 -32.075
LeftHand  0.119221 8.3221 5.69375
RightShoulder  0.202726 -2.68486 18.9565
RightArm  19.8293 4.28641 66.2747
RightForeArm  138.358 76.1911 134.694
RightHand  -0.293509 7.48221 -3.00797
LeftUpLeg  -45.6353 3.76309 6.58585
LeftLeg  49.6629 -8.59625 -10.2702
LeftFoot  -8.16427 0.0507245 -0.104487
LeftToes  -2.53752e-010 -2.07034e-011 -2.70101e-011
265
root  -26.7499 34.5484 -2.01999 7.46428 -48.7146 -3.8437
RightUpLeg  -37.516 -8.71362 -6.56598
RightLeg  56.7348 0.525558 0.421829
RightFoot  -20.9143 0.315141 5.46326
RightToes  1.45519e-009 0 -3.6325e-017
Spine  40.0135 1.02381 -0.716947
Spine1  -1.18039 0.295555 0.69209
HEad  -51.021 23.2397 -19.4211
LeftShoulder1  1.10466 -0.408664 -21.8826
LeftArm  -16.2579 -29.969 -68.0441
LeftForeArm  16.1751 -69.6262 -31.0046
LeftHand  0.0679172 7.97818 4.72448
RightShoulder  0.270432 -2.40544 18.5593
RightArm  19.7149 7.14463 67.929
RightForeArm  136.698 76.4594 133.381
RightHand  -0.253523 7.57746 -2.63234
LeftUpLeg  -47.8153 3.63978 7.60702
LeftLeg  51.6535 -9.46666 -12.1518
LeftFoot  -9.20362 0.0784765 -1.20868
LeftToes  -2.53752e-010 -2.07034e-011 -2.70101e-011
266
root  -27.2533 34.1053 -2.47746 7.41322 -45.2883 -3.73567
RightUpLeg  -38.4197 -11.6449 -5.32857
RightLeg  60.173 0.152658 -0.224617
RightFoot  -22.9793 0.328749 4.74932
RightToes  1.45519e-009 0 -3.6325e-017
Spine  40.2964 1.33833 -0.570251
Spine1  -1.03977 0.426806 1.62602
HEad  -51.155 22.2135 -17.7869
LeftShoulder1  1.12585 -0.678509 -20.462
LeftArm  -17.1723 -31.7225 -68.6603
LeftForeArm  15.6129 -69.1573 -30.1371
LeftHand  0.0572395 7.24001 5.56961
RightShoulder  0.335708 -2.12028 18.1028
RightArm  20.2363 9.33188 69.2859
RightForeArm  133.125 77.0001 130.466
RightHand  -0.266032 7.86045 -2.69552
LeftUpLeg  -49.78 3.15737 8.29749
LeftLeg  53.7295 -8.87611 -12.2789
LeftFoot  -9.89026 0.0793219 -1.57646
LeftToes  -2.53752e-010 -2.07034e-011 -2.70101e-011
267
root  -27.7434 33.6368 -2.77684 6.40308 -42.3879 -3.08458
RightUpLeg  -38.6089 -13.6431 -4.99386
RightLeg  63.5845 -0.284214 -1.22077
RightFoot  -25.337 0.3805 4.49807
RightToes  1.45519e-009 0 -3.6325e-017
Spine  40.2948 1.76835 -0.814632
Spine1  -0.580101 0.559171 2.89842
HEad  -51.2285 21.9926 -17.4003
LeftShoulder1  1.11527 -0.651185 -20.3971
LeftArm  -16.9678 -33.0919 -68.6931
LeftForeArm  14.0745 -68.4571 -29.03
LeftHand  0.0627894 7.61134 5.01533
RightShoulder  0.412407 -1.7555 17.1951
RightArm  20.6278 10.4784 70.5477
RightForeArm  127.789 77.7705 125.653
RightHand  -0.322315 8.00905 -3.16184
LeftUpLeg  -50.9378 2.31077 8.52569
LeftLeg  55.8715 -7.86505 -11.8143
LeftFoot  -10.5662 0.0750883 -1.71803
LeftToes  -2.53752e-010 -2.07034e-011 -2.70101e-011
268
root  -28.2021 33.2107 -2.9193 4.48322 -39.9895 -2.22404
RightUpLeg  -37.5272 -14.8135 -5.44503
RightLeg  66.5468 -0.690522 -2.43337
RightFoot  -27.8236 0.468454 4.53533
RightToes  1.45519e-009 0 -3.6325e-017
Spine  40.1339 1.85293 -0.67682
Spine1  0.27735 0.689404 3.14461
HEad  -50.6494 21.7486 -15.908
LeftShoulder1  1.12071 -0.803212 -19.5067
LeftArm  -16.7236 -33.5358 -69.1213
LeftForeArm  12.6442 -67.8015 -28.0859
LeftHand  0.100757 8.1957 5.76491
RightShoulder  0.434613 -1.66653 17.2666
RightArm  21.2901 11.8798 71.2046
RightForeArm  121.962 78.6203 119.207
RightHand  -0.278619 8.10453 -2.76785
LeftUpLeg  -50.9867 1.7489 8.26659
LeftLeg  58.1047 -8.21038 -13.4414
LeftFoot  -11.1276 0.0696552 -1.40873
LeftToes  -2.53752e-010 -2.07034e-011 -2.70101e-011
269
root  -28.6437 32.8277 -2.85136 1.63533 -37.4542 -1.24603
RightUpLeg  -34.7589 -16.1134 -6.78414
RightLeg  69.0405 -0.911714 -3.42932
RightFoot  -30.499 0.643358 5.03592
RightToes  1.45519e-009 0 -3.6325e-017
Spine  39.9949 1.68807 -0.190663
Spine1  0.561911 0.563626 3.95558
HEad  -49.812 21.5148 -14.9436
LeftShoulder1  1.08361 -0.709605 -19.1872
LeftArm  -15.553 -33.2744 -69.4411
LeftForeArm  10.0298 -66.7113 -26.6815
LeftHand  0.0900201 7.25921 7.27902
RightShoulder  0.506528 -1.35382 17.1311
RightArm  21.7514 12.2053 71.9118
RightForeArm  115.302 79.2851 112.133
RightHand  -0.228401 7.90973 -2.35955
LeftUpLeg  -49.8799 0.938828 7.51001
LeftLeg  60.5176 -8.62054 -15.5319
LeftFoot  -12.0631 0.0675372 -0.757585
LeftToes  -2.53752e-010 -2.07034e-011 -2.70101e-011
